<svg xmlns="http://www.w3.org/2000/svg" width="203" height="158.87" viewBox="0 0 203 158.87"><g transform="translate(0 -22.065)"><path d="M6.62,22.065A6.622,6.622,0,0,0,0,28.685V88.261H30.061A26.424,26.424,0,0,1,66.2,52.134V22.065Z" fill="#85888f"/><path d="M92.674,61.783A13.253,13.253,0,0,0,79.435,75.022v6.62a33.083,33.083,0,0,0,.667,6.62H92.674a13.239,13.239,0,0,0,0-26.478Z" fill="#85888f"/><path d="M52.956,61.783a13.239,13.239,0,1,0,0,26.478H65.529a33.084,33.084,0,0,0,.667-6.62v-6.62A13.253,13.253,0,0,0,52.956,61.783Z" fill="#85888f"/><path d="M196.38,22.065H79.435V52.133a26.2,26.2,0,0,1,13.239-3.59,26.43,26.43,0,0,1,22.9,39.717H203V28.685A6.622,6.622,0,0,0,196.38,22.065Z" fill="#85888f"/><path d="M33.1,127.978a6.62,6.62,0,1,1,0-13.239A33.032,33.032,0,0,0,59.513,101.5H0v72.815a6.622,6.622,0,0,0,6.62,6.62H66.2v-67.03A46.032,46.032,0,0,1,33.1,127.978Z" fill="#85888f"/><path d="M92.674,101.5H86.117a33.031,33.031,0,0,0,26.416,13.239,6.62,6.62,0,0,1,0,13.239,46.03,46.03,0,0,1-33.1-14.073v67.03H196.38a6.622,6.622,0,0,0,6.62-6.62V101.5ZM169.9,154.456H139.011a6.62,6.62,0,0,1,0-13.239H169.9a6.62,6.62,0,1,1,0,13.239Zm0-26.478H139.011a6.62,6.62,0,0,1,0-13.239H169.9a6.62,6.62,0,1,1,0,13.239Z" fill="#85888f"/></g></svg>
