<svg xmlns="http://www.w3.org/2000/svg" xmlns:xlink="http://www.w3.org/1999/xlink" width="784" height="359" viewBox="0 0 784 359"><defs><radialGradient id="a" cx="0.181" cy="0.08" r="0.363" gradientTransform="matrix(-1, 0, 0, 3.285, 0.362, 0)" gradientUnits="objectBoundingBox"><stop offset="0" stop-color="#925dff"/><stop offset="1" stop-color="#331e5e"/></radialGradient><clipPath id="b"><rect width="784" height="359" transform="translate(0 -51)" fill="url(#a)"/></clipPath><filter id="c" x="98.335" y="-271.981" width="553.51" height="700.751" filterUnits="userSpaceOnUse"><feOffset input="SourceAlpha"/><feGaussianBlur stdDeviation="19.5" result="d"/><feFlood flood-opacity="0.878"/><feComposite operator="in" in2="d"/><feComposite in="SourceGraphic"/></filter></defs><g transform="translate(0 51)" opacity="0.54" clip-path="url(#b)"><g transform="translate(141 -264.575)" opacity="0.32"><path d="M25.554,214.31l-.844,2.711-2.064,7.573c.563-1.776.563-1.776,2.908-10.284Zm-6.1,23.746.281-1.5-.469,2.244-.469,2.057.563-2.618c.094-.094.094-.094.094-.187Zm.657,123.594.563,2.431c2.439,8.134,6.1,18.791,9.38,26.645l-.281-1.309C26.867,381.1,22.458,370.158,20.113,361.65Zm14.07,41.042-.563-1.4a132.2,132.2,0,0,0,4.409,14.3l.844,1.87a113.9,113.9,0,0,1-4.5-14.584c-.094,0-.094-.094-.188-.187ZM279.941,586.774l1.97.187,17.447.094c-.375-.094-.375-.094-11.256-.187Zm239-482.221c-1.313-.467-1.97-.748-8.161-1.309.188.28.469.467.657.748.188.187.188.561.563.654,1.219.28,2.814.28,4.033.467,0,0,3.471.374,4.127.935A10.494,10.494,0,0,0,518.945,104.553ZM218.877,21.441l.938-.28c-5.909,1.963-13.789,4.394-19.51,6.638L197.49,28.92l21.293-7.386.094-.093ZM36.153,406.338c-.188-.28-.281-.561-.469-.841,8.911,24.027,9.286,24.962,20.824,44.782.563.935,1.219,1.87,1.782,2.9-13.226-22.9-13.789-23.84-22.043-46.745a.092.092,0,0,1-.094-.094ZM410.886,29.481a75.319,75.319,0,0,0-9.286-2.618c.563.187,1.126.467,1.688.654,1.126.374,2.72.654,3.846.935a52.427,52.427,0,0,1,5.44,1.683c-.563-.187-1.126-.467-1.688-.654ZM460.319,54.91c-19.6-11.686-25.889-15.145-53.091-25.71,9.943,4.394,20.261,8.04,30.11,12.9,7.785,3.833,17.635,9.629,25.045,14.117C461.726,55.751,460.976,55.284,460.319,54.91ZM313.615,9.1h-1.032c25.326,1.589,45.4,2.9,79.543,14.584.281.093.657.187.938.28C371.115,16.86,353.856,11.25,313.709,9.193a.092.092,0,0,0-.094-.093Zm47.651,14.771c.375.187.563.467,1.032.561,12.476,1.028,24.951,1.309,37.426,2.524-1.595-.654-3.377-1.309-38.458-3.085ZM336.6,585.839l-3.471.374h-.281ZM520.164,490.76l-1.876,2.057ZM432.273,557.6c4.5-2.618,4.6-2.618,6.285-5.329.657-.935-.094-2.711-.563-3.74l-1.5.935c.375,1.028,1.032,2.8.469,3.74-1.313,2.057-2.064,3.179-6.378,5.235a14.119,14.119,0,0,0,1.688-.841ZM581.322,214.217c-9.38-26.271-21.011-58.9-65.285-103.867,2.157,5.89,9.755,10.845,14.07,15.426,13.132,14.117,37.333,44.688,51.966,90.872l-.094-.374C581.7,215.526,581.51,214.871,581.322,214.217Z" transform="translate(-10.639 -6.389)" fill="#fff" opacity="0.4"/><path d="M558.81,226.825c-.094-.561-.281-1.122-.375-1.589-2.157,3.833-10.693,7.012-47.651,12.154a15.148,15.148,0,0,1,.375,1.776c32.83-4.488,46.619-8.04,47.745-12.06C558.9,227.012,558.81,226.918,558.81,226.825ZM495.964,488.6c.281-.28.469-.654.75-.935-22.512,22.531-37.708,34.4-78.136,56.187a5.355,5.355,0,0,1-.75.654c40.24-21.5,55.436-33.376,77.948-55.813C495.87,488.69,495.87,488.6,495.964,488.6Zm4.315-5.235,1.126-1.309c-3,.374-8.067.935-64.816,1.776-.188.374-.469.841-.657,1.215,30.3,0,62.19-1.309,64.347-1.589-.094,0,0-.093,0-.093ZM485.927,379.868l-.657,1.215c26.264,32.534,42.961,58.618,18.573,97.977C536.767,439.14,499.81,396.041,485.927,379.868Zm77.948-33.937c3-36.742-10.693-63.48-52.528-102a5.456,5.456,0,0,1-.188,1.215c37.8,36.742,56.28,62.732,52.247,102.932A9.893,9.893,0,0,0,563.876,345.931ZM559,369.116c-1.688.841-4.878,2.431-71.288,4.955-.094.841-.188,1.028-.281,1.683,18.01-.467,69.881-2.431,71.1-4.768a18.111,18.111,0,0,0,.469-1.87ZM68.609,444.563l-.844-1.309C50.224,458.025,43.47,468.5,55.383,484.67c.375.467.844.935,1.219,1.5-9.286-13.182-9.943-23.185,12.1-41.323C68.7,444.656,68.7,444.563,68.609,444.563ZM294.856,587.228c.563,0,1.219-.093,1.782-.093-1.126.093-2.533.093-7.035.187-.469,0-.938.094-1.407.094l6.472-.094c.094-.093.094-.093.188-.093ZM406.1,551.889a4.065,4.065,0,0,1-1.126.467c-12.663,6.731-24.2,15.613-37.989,20.287-25.889,8.788-35.644,10.564-63.034,13.837C363.33,581.058,393.253,560.583,406.1,551.889ZM230.7,578.814c2.814,1.122,37.9,7.292,41.929,7.947-.188-.093-.375-.187-8.911-1.683ZM487.71,110.9c-.281-.187-.563-.467-.844-.654,11.913,22.157,29.829,55.72,19.229,119.106.375.28.75.654,1.126.935,3.752-28.14,9.38-70.772-19.323-119.387h-.188ZM384.341,30.777h-.281c25.983,12.434,55.436,26.645,91.549,64.975C457.881,77.522,433.493,52.466,384.341,30.777Zm-4.127-1.309c-.375-.187-.844-.28-1.219-.467,15.665,8.6,44.837,24.588,38.271,60.955a12.6,12.6,0,0,1,1.313,1.028c1.688-14.865,4.6-39.64-38.083-61.423a.345.345,0,0,0-.281-.093Zm42.116,65.723.844,1.309c31.7,3.179,42.023,4.581,57.218,7.2C479.549,102.67,477.861,100.8,422.331,95.191ZM431.8,489.812l-1.313,1.028c1.595,19.072,1.219,33.1-16.6,53.757C414.076,544.41,436.213,529.545,431.8,489.812Zm-29.829,62.732.469-.467c-30.954,14.678-62.377,28.421-106.745,34.5-.188,0-.469.093-.657.093,26.358-3.74,56.28-9.536,106.933-34.124h0Zm2.064-1.683a9.82,9.82,0,0,1,1.032-.748c-22.512,8.788-46.525,17.67-91.831,29.73a2.052,2.052,0,0,1-.469.28,739.21,739.21,0,0,0,91.174-29.169l.094-.094ZM505.25,250.1c-.281-.094-.657-.28-1.032-.374-1.407,28.14-3.189,63.2-20.636,114.712.375.094.75.28,1.126.374,8.817-28.141,19.7-63.106,20.73-114.712h-.188ZM423.738,102.577c-.188.093-.375.28-.563.374,32.267,39.172,54.029,70.959,77.2,126.024.188-.093.375-.28.563-.374C483.676,186.344,465.573,152.126,423.738,102.577Zm-5.44-.374a4.438,4.438,0,0,1-1.126-.654c2.626,40.107-4.6,79.186-48.964,160.335l1.595.935c34.519-64.321,53.56-111.253,48.682-160.522a.328.328,0,0,1-.188-.093Zm80.387,139.58-.375-1.589c-19.323,5.609-48.495,14.023-124.567,28.982.094.374.188,1.028.281,1.4,49.152-8.6,98.115-20.568,124.755-28.514C498.778,241.97,498.684,241.877,498.684,241.783ZM339.692,27.6c19.886,12.9,40.428,26.271,70.35,60.3a2.213,2.213,0,0,1,.75-.187C394,69.481,373.179,46.857,339.692,27.6Zm-33.674,41.7v1.122L410.137,94.163a4.361,4.361,0,0,1-.469-.935C394.378,89.114,378.62,84.907,306.018,69.294ZM373.085,277.87l-.657,1.215c46.9,36.555,70.35,54.972,102.43,90.685a4.7,4.7,0,0,1,.75-1.122c-14.352-16.735-33.768-39.453-102.524-90.779Zm50.559,214.746c-.188-.093-.469-.28-.657-.374-17.822,19.446-59.47,64.975-108.809,86.478,14.07-6.544,56.937-26.364,109.559-86.1h-.094Zm53.935-106.672a4,4,0,0,1-1.032-.187c-10.13,29.356-17.447,50.672-41.554,90.5a3.342,3.342,0,0,1,.938.187c16.884-28.421,27.108-46.558,41.741-90.4C477.673,385.945,477.673,385.945,477.579,385.945Zm-4.971-9.162a7.992,7.992,0,0,1,.281-1.589c-29.829,3.366-56,6.17-120.628,11.78v1.309c49.808-3.272,113.311-10.471,120.346-11.219ZM422.424,488.036l.375-1.122c-22.887,8.414-39.49,14.4-87.891,30.291v1.122c48.307-15.8,63.784-21.316,87.422-30.1A.326.326,0,0,1,422.424,488.036Zm-80.012-88.909c-.375,0-.844.093-1.219.093-3.377,55.626-4.784,78.625-12.663,113.777.375,0,.844-.093,1.126-.093,4.409-19.913,10.975-50.017,12.757-113.777Zm7.879-4.768a8.208,8.208,0,0,1-1.126,1.4c31.892,26.458,61.908,52.822,78.042,84.421a13.306,13.306,0,0,1,1.219-1.122c-9.474-17.109-21.293-38.331-78.136-84.7ZM334.064,26.2a8.729,8.729,0,0,1-.938-.467c1.313,10.284-2.814,18.7-29.36,38.518a3.662,3.662,0,0,1,.75.935c24.67-18.6,31.329-27.3,29.735-38.892a.291.291,0,0,0-.188-.093ZM278.534,8.9Zm3.752,0H280.6c35.832.841,53.279,5.422,52.059,13.65.375.187.75.374,1.219.561.75-8.508-16.6-13.369-51.309-14.21h-.281Zm-4.971,0-.281.28a58.332,58.332,0,0,0,7.973,2.431l43.054,11.312c-.657-.467-.657-.467-10.318-3.085l-23.638-6.077c-14.539-3.646-15.758-4.114-17.165-4.768C277.127,8.994,277.221,8.9,277.315,8.9Zm-2.72,578.048c.281.094.281.094,3.377.187l9.38.187c.469,0,.844-.093,1.313-.093l-14.07-.28Zm32.83-4.674c-1.782.561-3.189,1.776-4.878,2.337a103.892,103.892,0,0,1-10.975,2.431c9.192-1.028,13.038-3.179,15.852-4.768ZM122.544,53.588l-1.595,1.028a19.566,19.566,0,0,0-4.221,4.114,5.4,5.4,0,0,0-.094,3.646,8.5,8.5,0,0,1,1.5-1.028,8.041,8.041,0,0,1,.469-4.207C119.355,55.738,121.231,54.523,122.544,53.588Zm206.643,472.4a6.53,6.53,0,0,1-1.219.467c1.5,15.519,3.846,38.892-16.228,52.541.281-.093,23.732-9.536,17.447-53.009Zm-24.294,55.813a5.522,5.522,0,0,0,.75-.374l-31.329,5.235c.469.28,1.219-.093,1.782-.28,5.253-.935,10.224-1.683,28.8-4.581h0ZM276.377,8.993c-2.814,1.963-4.5,3.179-.188,15.426,3.283,9.442,11.913,25.242,18.854,37.957.188-.093.563-.187.75-.28C277.127,26.944,270.092,13.761,276.377,8.993Zm-27.953,561.22c-.094.094-.188.094-.281.187,9.474,7.386,15.289,11.873,23.356,15.706C264.277,581.993,260.618,579.842,248.424,570.213Zm73.54-44.127a2.993,2.993,0,0,1-.657-.561c-39.4,39.733-51.215,53.2-48.589,60.581.094,0,.188.093.281.093-1.688-7.666,6.566-17.763,48.964-60.02C322.058,526.086,322.058,526.086,321.964,526.086Zm-66.6-43.473-.469,1.122c40.709,19.352,46.994,22.344,66.786,33.656a5.673,5.673,0,0,1,.657-.935C299.921,503.368,289.884,498.693,255.366,482.613Zm65,41.322a5.245,5.245,0,0,1-.188-.935c-47.088,22.625-62.565,30.852-74.572,41.229.188.187.469.374.657.561,15.008-11.686,26.077-17.763,74.1-40.762ZM301.984,74.81c-.281.093-.75.093-1.032.187,27.2,75.072,40.9,112.749,59,186.138.281-.094.75-.187,1.126-.28-8.254-37.676-21.105-86.385-59.094-186.045ZM10.077,399.875c0,.094,6.378,14.023,55.624,38.7-.188-.748-.281-.841-.469-1.589-23.45-11.967-39.959-21.129-55.155-37.115Zm231.781-257a6.569,6.569,0,0,1-.938.748c36.019,42.164,76.823,79.747,114.249,120.6l.938-.935C319.431,221.776,278.628,184.193,241.858,142.871Zm92.206,253.918-1.032-1.028L251.895,472.61a6.565,6.565,0,0,1,.938.748l81.419-76.381c0-.094-.094-.094-.188-.187Z" transform="translate(15.343 -6.376)" fill="#fff" opacity="0.4"/><path d="M450.329,390.245v-1.5l-161.9,13.276.375,1.683,161.525-13.276Zm31.517-106.672a7.105,7.105,0,0,1-1.595-.28c-4.409,29.075-7.879,51.98-17.728,94.8a6.352,6.352,0,0,1,1.313.187c5.065-20.848,11.444-46.838,18.2-94.612a.291.291,0,0,0-.188-.094Zm-9.943-10.1a10.129,10.129,0,0,1-.094-1.683l-181.223,9.442v1.87l181.223-9.442A.289.289,0,0,0,471.9,273.476Zm-182.161,14.3-.844,1.683c52.9,33.75,108.621,62.732,162.65,94.705l.938-1.589c-54.217-31.693-109.934-60.768-162.744-94.8Zm124.755-214-.844-.654c-13.507,16.174-17.634,21.129-52.622,56a5.437,5.437,0,0,1,1.126.935c31.423-31.506,39.771-40.388,52.528-56.187a.328.328,0,0,1-.188-.093Zm-31.986-57.87a1.588,1.588,0,0,1-.469.187c-.188,9.629,2.72,17.483,30.673,47.306.375-.28.469-.374.844-.654C393.392,41.154,381.292,27.224,382.511,15.912Zm-56.843,35.9a5.349,5.349,0,0,0-.657.748c19.886,4.768,41.46,8.321,86.015,15.239V66.677C377.915,61.535,351.651,57.421,325.668,51.812ZM336.08,20.025c-31.7,13.743-65.66,32.067-101.023,89.844.188,0,.469-.093.657-.093,23.544-35.994,47.463-67.687,100.367-89.75ZM234.963,66.116c-.188.093-17.447,14.491-6.566,47.867l1.219-1.215c-3.94-13.65-7.6-26.551,5.347-46.651ZM340.395,18.9c-5.816,1.776-13.413,9.162-13.882,9.91-5.722,8.227-5.816,9.442-6.472,19.072a7,7,0,0,1,1.126-.654c1.126-14.4,3.377-18.885,19.229-28.327Zm38.833-2.8v-.187c-15.289,8.134-27.484,15.052-51.59,30.665a1.326,1.326,0,0,1,.188.561c22.231-14.491,33.3-21.316,51.4-31.039ZM280.175,294.325a6.481,6.481,0,0,1-1.688-.187c-2.251,35.059-3.471,59.179-.844,99.1a5.367,5.367,0,0,1,1.219.093C277.642,358.178,276.985,336.862,280.175,294.325ZM396.206,8.9h.281c-3,.187-15.383,1.215-47.651,7.292-.375.093-.844.28-1.219.374C380.541,10.3,393.111,9.087,396.206,8.9Z" transform="translate(-103.829 -6.376)" fill="#fff" opacity="0.4"/><path d="M301.655,8.993a71.628,71.628,0,0,0-9.1,3.366.092.092,0,0,0,.094.093A74.573,74.573,0,0,1,301.655,8.993Zm-14.914,5.422c.188-.093.281-.187.469-.28l-33.862,2.618-1.313.467,34.706-2.8Zm-66.317,41.79c-.094-.187-.094-.374-.188-.561-32.361,21.69-46.431,32.161-75.322,55.626l.281.841c29.266-23.84,43.336-34.311,75.228-55.907Zm7.129-.467c-.281.187-.563.28-.844.467.281,13.276.75,31.319,28.7,73.577a5.167,5.167,0,0,1,1.313-.841C244.249,109.121,226.99,82.1,227.553,55.738ZM107.488,267.586a11.181,11.181,0,0,1-.281,1.87l69.412,12.621a11.188,11.188,0,0,1,.281-1.87ZM256.724,145.208c-.375-.094-.844-.374-1.219-.467-21.949,38.7-42.679,75.353-65.191,126.959.375.094.844.374,1.219.467,21.762-46.651,29.829-64.134,65.379-126.959ZM143.132,118.564a11.913,11.913,0,0,0-.657,1.122c10.224,2.244,31.329,6.825,109.184,16.454.094-.374.188-.841.281-1.122L143.132,118.564Zm-5.816,6.544c-.188.093-.469.28-.657.374-2.064,36.835,4.6,74.418,43.992,147.994.469-.28,1.032-.748,1.5-1.028-23.919-45.436-47.088-94.238-44.837-147.34ZM270.888,487.475l-1.219-.374c-4.127,20.755-10.224,52.261-2.251,75.353a2.746,2.746,0,0,0,.844.187c-3.1-12.528-7.316-29.823,2.908-75.166h-.281ZM194.16,410.439a10.579,10.579,0,0,1-.938,1.215C219.673,435.4,223.05,438.3,264.51,473.638a5.35,5.35,0,0,1,.657-.748L194.16,410.439Zm69.788,71.426a4.693,4.693,0,0,1-.375-1.215c-28.046,6.825-80.2,19.633-107.12,33.843l.844.841c20.918-9.069,40.709-17.576,106.745-33.376l-.094-.093Zm2.814,86.2c-.188-.187-.469-.374-.657-.561-9.474,4.207-12.382,5.983-14.07,9.629.375.187.844.281,1.219.467,1.5-3.272,3.471-4.955,13.507-9.536h0ZM160.954,519.822c.094.187,3.94,5.142,103.274,45.062-.094-.187-.094-.374-.188-.467Zm-57.5-69.463c-.188.093-.375.093-.563.187,14.07,22.625,21.105,34.03,43.9,59.179.188-.093.469-.093.657-.187C129.343,488.877,121.183,479.434,103.454,450.359Zm77.761-38.611A7.769,7.769,0,0,1,180,410.719c-23.169,38.8-34.519,66.284-28.14,100.221.281.187.657.374.938.561-3.189-25.055-3.1-48.241,28.609-99.66-.094,0-.188,0-.188-.094ZM219.3,21.334c-37.239,10.845-62.1,30.291-70.35,36.648a.714.714,0,0,1,.375-.187c.094-.093.281-.093.375-.187,4.409-2.337,9.38-6.918,13.414-9.91,8.63-6.357,25.326-16.08,56.187-26.364Zm23.45-1.963c.188-.093.469-.187.657-.28-37.145,11.5-57.781,20.287-91.925,38.985l-.75.748c27.484-15.052,48.683-25.9,92.018-39.453Zm-112.842,106.2c-.094-.187-.188-.561-.281-.748-23.544,22.905-39.115,38.518-62.284,70.491a6.415,6.415,0,0,1,.281.748C86.289,171.572,97.545,156.8,130,125.762a.289.289,0,0,1-.094-.187Zm3.471,1.215c-.188,0-.469.093-.75.093-10.693,22.625-28.515,60.581-33.112,128.736.188,0,.563-.094.75-.094,4.69-40.575,9.1-78.905,33.112-128.736ZM104.2,275.72l-1.032.935c12.757,27.58,27.2,58.805,74.947,118.919a11.89,11.89,0,0,1,1.126-.935c-37.52-48.241-56.468-78.251-75.04-118.919ZM64.152,368.742c-.188.094-.469.187-.657.28,9.38,25.523,13.695,37.209,28.234,62.825l.75-.374C80.1,408.1,73.25,395.2,64.152,368.742Zm113.311,38.424a7.683,7.683,0,0,1-.563-1.5c-34.331,12.154-52.435,19.259-75.322,31.974.375.654.563.841.938,1.5,15.2-8.321,28.234-15.426,75.04-31.88,0,.093,0,0-.094-.093ZM66.4,360.422c0,.374.094.935.094,1.4,20.448,9.816,42.773,19.633,109.747,40.014v-1.309C106.737,377.624,97.826,374.726,66.4,360.422ZM64.527,209.9a7.326,7.326,0,0,1-.938,1.4c8.348,18.231,11.444,25.055,30.016,49.363a5.834,5.834,0,0,1,.938-1.5C79.91,239.633,74.376,232.341,64.527,209.9Zm30.016,66.471-.844-1.028c-11.444,21.035-23.356,42.725-31.7,73.576a5.432,5.432,0,0,1,.938,1.122c6.378-20.381,12.944-41.509,31.7-73.577a.092.092,0,0,1-.094-.094ZM161.8,523.281l-.281.28c19.886,16.08,44.555,36.087,83.389,51.793C223.144,565.539,198.568,554.32,161.8,523.281ZM59.462,140.908C39.013,175.031,34.98,184.1,23.255,221.683,35.355,183.352,39.482,174.284,59.462,140.908ZM91.448,496.356a8.684,8.684,0,0,0,1.313,1.309c4.69,3.74,11.631,9.349,56.374,18.6-.375-.374-.469-1.028-1.032-1.215-3-1.028-7.223-1.589-10.318-2.244-11.444-2.337-38.927-8.882-46.338-16.454ZM121.933,524.4l2.439,1.963c19.229,13.837,27.953,20.194,55.811,33.376-11.256-6.077-22.887-11.5-33.862-18.137-7.692-4.675-17.259-11.78-24.388-17.2Zm32.455-3.366-1.126-.841c1.407,10.845,3.189,24.4,29.829,40.294.469.187,1.032.467,1.5.654-12.194-7.76-28.8-18.418-30.016-39.92-.094-.093-.094-.187-.188-.187ZM135.534,68.079c.188-.187.375-.467.563-.654C116.68,80.7,92.386,97.154,70.624,125.014a2.034,2.034,0,0,0-.469.748C83.756,109.776,99.139,91.732,135.534,68.079Zm.844,1.028c-.469.187-52.716,38.05-73.071,125.183l.563-.28C73.063,160.728,85.726,115.1,136.378,69.107ZM62.932,135.953c-8.817,12.621-16.79,33.937-4.221,63.667l.844-1.5C53.928,182.6,46.8,163.252,62.932,135.953ZM245.562,14.6l-2.251.467-10.037,2.337C234.494,17.034,234.494,17.034,245.562,14.6Zm40.8-5.235-1.97.093c-20.073,1.5-30.016,3.646-34.237,7.292a8.806,8.806,0,0,1,1.5-.374,6.556,6.556,0,0,0,1.595-1.215c.469-.28,3.283-1.776,9.192-2.992C271.17,10.3,280.644,9.741,286.366,9.367ZM247.813,17.5c.469-.093.844-.28,1.313-.374-10.881.561-15.477.935-19.886,1.4-.563.187-1.219.28-1.782.467,4.033-.467,7.973-.841,20.261-1.5ZM18.471,243.092c-4.5,30.665-11.35,77.129,10.6,143.881C19.221,352.756,7.027,310.124,18.471,243.092Zm37.52,119.574-.563-1.5c-10.6,9.816-19.042,17.67-22.418,31.787.188.561.469,1.122.657,1.683,3-9.629,5.159-16.548,22.325-31.787a.129.129,0,0,0,0-.187ZM252.316,578.814c-.375-.093-.75-.281-1.126-.374-1.782,1.309-5.253,3.833,10.13,6.264,1.126.187,2.626.374,3.752.561l1.97.28C255.13,583.956,248.095,582.18,252.5,579a.328.328,0,0,1,.188-.093C252.41,578.908,252.41,578.814,252.316,578.814Zm-58.344-12.808-1.313-.561c14.445,6.17,15.008,6.451,26.733,10.1l2.157.654c-15.008-4.861-16.978-5.422-27.39-10.1,0-.094-.094-.094-.188-.094Zm-3-2.057c.094.093,12.288,5.142,58.438,13.743a4.721,4.721,0,0,0-1.219-.467C229.147,572.737,209.73,569.746,190.97,563.949ZM59.649,214.671c-.188,0-.469.093-.657.093-8.536,44.408-10.975,75.54-1.5,132.475a1.744,1.744,0,0,0,.657-.187C50.832,297.41,49.425,267.96,59.649,214.671Zm-3.564-7.386a6.652,6.652,0,0,1,.375-1.5c-19.6,9.442-26.452,13.556-34.143,23.279-.094.561-.281,1.215-.375,1.776,7.129-8.6,12.006-12.808,34.143-23.279v-.28Zm-36.3,31.693c-.094.467-11.913,46,34.8,112.562.094-.374.188-.841.281-1.215-15.759-24.214-39.584-60.862-35.081-111.346Zm561.678-22.811c1.313,4.488,3.846,13.93,4.878,18.511C584.933,228.414,583.244,222.244,581.462,216.167ZM332.422,586.2a1.192,1.192,0,0,0,.563-.094q-11.549,1.194-23.169,1.4h.469C317.695,587.415,325.105,586.948,332.422,586.2ZM533.342,474.292l.188-.187c-.563.561-13.882,16.641-13.976,16.735.094,0,.094-.093.188-.187Q526.845,482.728,533.342,474.292ZM302.968,8.9c4.971,0,9.286.093,11.913.28C311.035,8.993,307,8.9,302.968,8.9Zm96.708,17.389c5.065,1.87,9.474,3.74,10.318,4.394a.092.092,0,0,1-.094.093c-1.407-.187-19.511-7.2-20.167-7.666h.094a85.938,85.938,0,0,1,9.849,3.179Zm111.06,77.316c-3.94-4.488-7.879-7.76-9.38-7.853-2.533.467,7.879,12.341,12.1,15.239,1.782,1.215,2.626,1.215,2.439.093-.375-1.4-2.251-4.207-5.159-7.479ZM439.26,547.495c4.784-3.085,6.472-4.955,5.722-5.235h-.188c-3.1.28-18.573,10.1-17.541,11.032C427.723,553.852,432.976,551.609,439.26,547.495Zm97.459-308.516c-.938-5.235-3.846-10.564-8.348-10.751-6.941.094-6.285,14.491-.563,20.1,4.127,4.02,9.38,1.87,9.192-5.983A20.371,20.371,0,0,0,536.719,238.979Z" transform="translate(-10.217 -6.376)" fill="#fff" opacity="0.4"/><path d="M586.314,375.1c1.5-7.292-1.688-10.658-5.159-10.751-9.38.654-12.288,16.454-7.6,20.474C577.215,387.814,584.438,384.729,586.314,375.1ZM387.644,587.322l7.6-.841c-5.44.28-10.881,1.122-16.321,1.215,1.032,0,4.5-.093,8.723-.374ZM534.911,484.576c2.908-4.861,2.345-8.321-1.313-8.414-7.785.467-15.477,12.808-11.819,16.08C524.03,494.206,530.6,491.775,534.911,484.576ZM521.216,95.285c-2.439-3.553-6.66-7.386-10.975-7.666-4.971,0-2.157,6.918,2.345,11.406,5.065,5.048,10.693,5.329,10.787,1.683C523.468,98.837,522.061,96.5,521.216,95.285ZM434.263,23.952c-3.377-1.87-7.316-3.272-9.1-3.366-.281,0-1.032,0,0,.935,3.283,2.992,13.6,7.666,13.413,5.7C438.578,26.663,436.89,25.354,434.263,23.952ZM409.406,581.058c3.1-1.215,4.127-2.15,3.658-2.431a.565.565,0,0,0-.375-.094c-2.439.094-11.444,4.02-11.444,4.674.657.374,4.878-.748,8.161-2.15Zm63.5-309.077c-.281-6.638-4.6-11.125-10.975-11.312-11.537,0-13.32,14.117-6.941,20.007,6.1,5.7,18.385,2.9,17.916-8.695ZM433.325,519.915c1.407-4.02-.563-6.918-4.784-6.918-7.973,0-11.819,9.068-8.348,12.621C423.007,528.516,430.98,526.74,433.325,519.915ZM450.96,388.749c.563-7.292-4.409-10.658-9.661-10.751-11.35.28-14.351,13-8.723,18.511C438.39,402.212,450.209,398.566,450.96,388.749ZM404.528,67.892a8.247,8.247,0,0,0-7.879-6.077c-6.66.093-7.5,7.2-3.94,10.845,3.94,4.02,12.1,2.9,12.1-2.9A9.914,9.914,0,0,0,404.528,67.892ZM354.345,478.5c-.563-3.553-3.471-7.479-9.849-7.76-10.037.374-9.755,10.284-4.971,14.491,5.722,4.955,15.571,2.337,14.82-5.8A1.588,1.588,0,0,0,354.345,478.5ZM376.2,8.9c-.844,0-1.407.093-1.407.187h.375A2.632,2.632,0,0,1,376.2,8.9Zm-2.72,578.048a7.023,7.023,0,0,0-2.72-1.028c-.469,0-.469.187-.188.374a8.875,8.875,0,0,0,4.221,1.215l-.094-.093a2.885,2.885,0,0,1-1.219-.467ZM343.746,135.485c0-3.646-2.157-7.666-8.348-7.947-10.13.28-13.32,11.219-8.536,15.8C331.927,148.2,343.746,145.4,343.746,135.485ZM364.851,13.948c.844-.841,1.595-1.776.563-1.776-2.345.093-7.5,3.085-6.378,4.114C359.6,16.847,362.224,16.473,364.851,13.948ZM346.466,566.473a9.316,9.316,0,0,0-7.035-4.114c-3,.094-3,2.431,0,5.235,3.471,3.272,8.254,4.207,8.161,1.589a4.925,4.925,0,0,0-1.126-2.711ZM270.3,282.545c.094-6.638-3.94-11.219-9.943-11.406-11.444.28-13.132,15.426-6.941,20.848C259.231,297.036,270.206,294.137,270.3,282.545Zm-1.876,121.163c-1.313-8.134-7.6-10.377-11.162-10.471-10.412.28-9.192,12.528-3.846,17.576,5.816,5.422,15.2,3.459,15.2-5.142a12.777,12.777,0,0,0-.188-1.963ZM306.132,50.69c.75-1.122,2.908-4.674-.844-4.861-6.285.28-13.789,8.6-11.35,10.845C296,58.356,302.286,56.3,306.132,50.69ZM327.8,578.16c-3.564-1.4-7.5-2.9-9.286-2.992-.281,0-.563,0-.281.374,1.313,1.589,13.789,5.609,15.289,5.329v-.093c-.188-.187-.375-.467-5.722-2.618ZM180.814,265.53c.094-5.89-2.626-9.91-6.941-10-8.348.094-11.537,15.706-6.1,20.942,4.69,4.488,12.945.654,13.038-10.938Zm36.3-148.275c2.533-5.142,1.126-7.386-1.407-7.479-6.378,0-15.852,12.9-12.1,16.361C206.046,128.473,213.082,125.295,217.115,117.255ZM325.267,17.221l6.754-2.431-.094-.093c-2.345.093-16.79,4.114-16.884,5.329C315.793,20.306,320.952,18.716,325.267,17.221ZM231.748,516.643c-3.752-4.3-7.879-7.012-10.881-7.2-3.1,0-1.595,3.927,3.283,8.694,5.44,5.235,10.975,7.012,11.068,4.487.094-1.215-1.219-3.366-3.471-5.983Zm-55.155-75.727c-2.533-5.516-6.472-9.256-9.943-9.442-5.816.093-1.876,11.219,3.471,16.267,4.221,4.02,8.254,3.553,8.161-.935a14.057,14.057,0,0,0-1.688-5.89Zm-37.52-83.86c-1.032-4.581-3.471-9.629-7.316-9.91-6.285.187-4.784,15.239.657,20.474,3,2.9,7.41,2.244,7.41-5.516a40.125,40.125,0,0,0-.75-5.048Zm1.407-154.071c1.032-4.3,1.032-8.882-2.157-9.162-5.628.093-12.1,16.174-8.161,20.287C132.507,216.541,137.947,212.8,140.48,202.985Zm79.355-140.7c3.1-2.431,6.66-5.422,5.44-5.609-3.283.187-18.291,11.312-17.165,12.621C208.485,69.762,211.393,68.827,219.835,62.283Zm42.116,500.732c-6.378-2.9-9.286-4.207-10.13-4.394.469,1.215,18.1,8.6,19.886,8.882-.094-.187-.094-.187-9.755-4.488ZM107.837,396.883c-2.251-6.077-4.221-10-5.253-10.19-1.876.374,4.784,19.259,7.316,20.848.75.467.75-1.028,0-3.833A53.782,53.782,0,0,0,107.837,396.883ZM301.254,18.81c3.471-.935,7.035-1.589,10.506-2.711-4.6.841-17.822,4.488-21.574,5.8.188,0,.188,0,1.407-.374ZM94.8,232.154c1.032-4.488,2.251-10.1,1.876-10.751-.938.748-5.534,20.194-5.159,21.877.563-.094,2.251-7.012,3.283-11.125Zm44.743-101.063c1.876-2.618,3.846-5.235,5.628-7.947l-3.189,4.3-9.474,13.65c2.439-3.272,4.69-6.638,7.035-10Z" transform="translate(-83.449 -6.376)" fill="#fff" opacity="0.4"/><path d="M505.825,570.69a10.985,10.985,0,0,0,1.032.467c-22.231-8.788-31.423-12.434-55.061-26.832l-2.251-1.4c19.417,11.78,26.733,16.267,56.187,27.86Zm-74.759-41.135-1.782-1.4c-12.851-11.032-13.132-11.312-18.76-17.95.375.374.844.654,1.219,1.028,2.626,2.431,5.722,6.077,8.161,8.695a99.226,99.226,0,0,0,11.162,9.629Zm72.977,40.107c-35.175-15.8-53-25.242-88.454-55.813l.094-.187C445.511,539,461.926,551.151,504.043,569.662ZM401.8,94.266l2.908-2.9C424.594,73.231,461.645,39.481,529.744,19.1,483.125,36.489,446.261,50.232,401.8,94.266Z" transform="translate(-317.567 -7.04)" fill="#fff"/><path d="M384.656,110.354c.469-.467.844-1.028,1.313-1.5,2.345-2.337,5.44-5.422,7.973-7.573a16.294,16.294,0,0,1-1.126,1.309c-2.439,2.337-5.909,5.235-8.161,7.76ZM336.724,228.525l-.657.935c1.595-24.307,3.752-57.59,33.205-99.38.563-.841,1.219-1.683,1.782-2.524-13.976,21.222-33.205,50.3-34.331,100.782.094.093.094.093,0,.187ZM527.889,27.616l-1.219.654c-1.126-2.992-1.407-3.833.469-6.544,1.5-2.057,5.065-3.74,7.692-5.048.563-.187,1.126-.28,1.688-.467-4.315,2.057-6.472,3.085-8.254,5.422-1.688,2.244-1.032,4.02-.281,5.89A.092.092,0,0,1,527.889,27.616ZM404.542,91.656C434.089,64.638,465.7,38.741,527.233,18.641,488.118,32.384,451.817,47.342,404.542,91.656Zm-2.72,3.646c.188-.28,27.859-28.421,119.877-63.947-3.752,2.992-10.224,4.3-14.633,6.077C444.5,62.581,414.578,85.486,401.821,95.3ZM507.159,570.418c-.281-.093-24.576-9.256-40.9-30.01.469.28.938.467,1.313.748,2.626,1.963,5.065,5.7,7.316,8.134.375.467,9.755,10.751,32.267,21.129ZM397.976,497.589C357.923,454.3,340.007,422.8,324.248,367.825c-.563-2.15-1.032-4.3-1.5-6.451C330.814,391.478,344.228,441.963,397.976,497.589ZM315.9,290.7l.094-2.244c1.595-13.93,3-25.9,16.6-45.623a5.093,5.093,0,0,1-.094,1.683c-1.313,3.74-4.784,7.76-6.754,11.125A77.6,77.6,0,0,0,315.9,290.7Zm41.929,38.985a2.448,2.448,0,0,0-.469.841c-9.192-23.372-17.916-45.343-20.636-82.458.281-.467.375-.561.657-1.028,2.533,23.279,4.878,45.343,20.542,82.645h-.094Zm-1.782,7.012a7.6,7.6,0,0,0,.094,1.683C331,326.97,317.964,318.743,315.994,305.748v-2.057c2.064,9.629,6.1,17.67,40.147,32.721a.342.342,0,0,0-.094.28Zm217.9,249.15c-18.573-4.674-53.091-13.369-101.4-43.566l-.094-.467c21.293,12.715,57.125,34.124,101.492,44.034ZM408.294,151.957l-.844,1.122c-14.352-17.109-20.73-30.1-13.132-49.643.375-.467.844-.841,1.219-1.309-5.816,16.267-5.347,27.86,12.757,49.643.094,0,0,.093,0,.187ZM338.225,227.03a2.043,2.043,0,0,0-.469.374c5.534-29.636,13.038-70.117,52.153-119.947l.563-.374c-17.822,24.027-42.21,57.029-52.247,119.947Zm2.814,4.581c0-2.431,17.259-30.852,63.034-69.463v1.028C380.529,184.4,360.08,202.816,341.039,231.611ZM457.07,533.3l.75.748c-13.882-6.357-29.641-13.556-46.713-24.775-.375-.374-.75-.841-1.126-1.215,12.569,7.853,22.418,14.117,46.9,25.149A.291.291,0,0,0,457.07,533.3Zm-56.749-34.591c-.563-.374-51.309-46.651-40.428-149.3l.563.561C357.079,398.583,357.735,443.365,400.321,498.711Zm4.221,3.833c-.188-.187-20.167-20.194,15.665-58.712.469.654.563.841,1.032,1.5C406.418,462.157,393.942,479.172,404.542,502.544ZM606.776,6.3c-1.5.093-3.94,0-3.94,0h1.782a16.612,16.612,0,0,0,2.157,0ZM539.9,15.275c6.941-1.87,40.8-6.825,66.223-8.882Zm4.033-1.4-1.219.28c16.227-3.74,22.981-5.329,47.088-7.292l2.345-.187c-20.73,1.683-27.577,2.337-47.932,7.105a.345.345,0,0,1-.281.093ZM588.485,589.3l-3-.187c-30.954-3.366-39.021-5.049-65.942-13.556C539.427,581.73,556.592,587.059,588.485,589.3Zm-11.068-2.524,1.126.28a524.7,524.7,0,0,1-60.5-12.528c-.563-.187-1.032-.374-1.595-.561,15.946,4.3,31.611,8.227,60.877,12.808ZM530.422,560.6l.563.561c-27.108-8.882-41.647-14.21-60.314-21.6l-1.032-1.028c21.856,8.695,32.455,12.528,60.783,22.064ZM459.04,530.778c-.281-.093-26.827-21.783-34.143-82.178.281.187.657.374.938.561C430.243,475.993,433.9,499.178,459.04,530.778Zm116.407,55.159c-1.876-.374-18.948-3.833-35.269-19.072a3.579,3.579,0,0,1,.938.28c3.1,1.683,6.285,5.142,9,7.292,6.378,5.235,20.824,10.19,25.326,11.5Zm31.892,4.114h-2.064c-18.291-.28-22.512-1.5-24.107-2.431l1.407.281c.281.094.563.28.844.374,1.219.561,6,1.028,7.785,1.215,1.97.094,6.66.467,16.134.561Zm1.313,0c-6.472-.187-9.661-.28-22.231-1.87a4.724,4.724,0,0,0-1.126-.187c11.256,1.309,15.289,1.776,23.356,2.057Zm-246.133-261.4c-.188-.093-.563-.187-.75-.28,1.595-32.348,4.315-86.478,44.086-162.2.188.093.563.187.75.28-20.73,42.164-41.272,89.47-44.086,162.2ZM418.33,431.4l-.375.374c-15.852-20.194-32.174-40.949-51.966-81.523a8.179,8.179,0,0,0,.75-.935c13.132,25.71,22.512,44.408,51.59,82.084Zm8.348,1.215c-.281-.187-.563-.467-.844-.654,3.189-19.352,11.725-70.772,78.793-165.944a8.231,8.231,0,0,0,1.407,1.122C471.89,317.247,435.683,375.959,426.679,432.614Zm-59.376-96.2c-.094-.467-.281-1.028-.375-1.4,30.485-24.681,69.6-46.277,134.885-74.511a10.548,10.548,0,0,0,.375,1.4C445.439,288.172,404.542,307.244,367.3,336.413Zm205.33-198.946a9.13,9.13,0,0,0-1.595-.093c4.221-22.064,17.072-89.283,30.767-121.724h.469C598.8,24.811,588.2,52.671,572.632,137.466Z" transform="translate(-315.9 -6.207)" fill="#fff"/><path d="M434.565,27.074C436.91,25.3,482.966,10.153,505.2,6.6,491.783,9.4,475.18,12.864,434.565,27.074Zm-1.97,1.309c1.126-.748,1.126-.748,10.6-2.8l57.5-12.154c0,.093-.094.28-.094.374L432.595,28.383Zm75.228,561.593c-12.944-1.309-27.671-2.711-63.972-22.812l.094-.28C462.8,577.075,484.091,588.574,507.823,589.977ZM317.5,147.022a1.336,1.336,0,0,1-.563-.187c25.139-43.753,52.341-79.84,103.462-113.31C386.257,57.552,354.928,82.607,317.5,147.022Zm146.986-7.386c-.281.28-.657.561-.938.841C430.156,102.988,402.3,64.1,424.81,32.684c.375-.187.844-.374,1.219-.561-14.351,22.344-13.32,49.176,38.646,107.42A.291.291,0,0,0,464.487,139.636ZM404.173,250.048a6.121,6.121,0,0,0-.75,1.215c-39.115-29.917-69.131-56.374-88.923-88.441.469-.561.657-.748,1.126-1.4,14.07,21.409,31.517,44.314,88.735,88.441a.2.2,0,0,0-.188.187Zm-86.015-93.209.657-1.589,141.733-8.695a9.04,9.04,0,0,0-.094,1.589Zm190.7,433.232h1.313A6.152,6.152,0,0,0,508.855,590.07Z" transform="translate(-216.103 -6.226)" fill="#fff"/><path d="M363.484,590.057c-8.911,0-12.569-2.8-10.975-8.227l.563.28c-.188,1.776-.094,4.768,1.313,5.89C356.261,589.309,359.263,590.057,363.484,590.057Zm-13.32-11.5c0,.094.094.187.094.281l-52.716-14.211-.75-.748ZM185.45,437.482a8.529,8.529,0,0,0-.75-1.215c26.546-18.324,59.376-34.4,121-59.273.094.374.375.935.469,1.309C236.384,408.406,217.624,416.54,185.45,437.482ZM284.879,557.99c-27.577-20.194-60.97-48.8-99.71-108.168.281-.094.657-.28.938-.374C203.366,475.345,232.351,518.724,284.879,557.99Zm7.879,2.8c-.375-.28-.75-.467-1.126-.748,6.66-13.743,17.822-23.185,49.714-42.164a4.151,4.151,0,0,0,.75,1.028C310.017,538.077,299.043,547.426,292.758,560.795Zm47.932-49.643-.281.841c-100.742-40.668-137.043-59.086-152.426-66.939a8.159,8.159,0,0,0-.188-1.5c46.337,23,66.786,31.6,152.989,67.406a.289.289,0,0,0-.094.187Zm-7.6-370.687a7.15,7.15,0,0,0-.844-.841c53.185-50.485,64.253-61.049,77.01-83.767.188.187.563.374.75.561C395.47,82.314,376.335,101.012,333.092,140.464Zm1.876,5.516c0-.467-.094-1.122-.094-1.589L473.793,119.9a6.67,6.67,0,0,0,.75,1.4C427.831,130.929,400.629,135.323,334.968,145.98Zm-23.075,217.27a7.912,7.912,0,0,0-1.313.561c-16.228-33.937-25.42-54.692-40.616-95.547a13.308,13.308,0,0,0,1.688-.748c12.382,32.534,19.135,50.391,40.428,95.734Zm-39.115-116.3-1.219-.561c11.35-24.214,17.072-36.368,47.651-90.966a4.067,4.067,0,0,0,1.126.467Zm213.678,6.825a3.277,3.277,0,0,1-.469.748L332.436,152.992l1.032-1.4c51.028,33.937,103.556,65.723,153.083,101.9C486.55,253.681,486.456,253.681,486.456,253.774Zm-1.595,6.17v1.122c-25.326.374-25.326.374-207.205-2.8,0-.561.094-1.309.094-1.87l207.112,3.459v.093ZM372.489,6.493c.469,0,1.032.093,1.5.093-4.033-.093-8.161-.093-12.194-.093a.565.565,0,0,0,.375-.093l10.224.093Zm59.563,560.191a8.463,8.463,0,0,1-.844.468c-5.722-12.341-19.98-24.214-75.791-48.615a4.04,4.04,0,0,0,.469-1.122c43.148,19.165,71.007,34.03,76.354,49.176a.291.291,0,0,1-.188.093Zm-79.074,9.91a1.193,1.193,0,0,1-.563-.094c-1.97-8.414-5.065-21.035-4.971-54.5a6.212,6.212,0,0,0,1.313.094C348.757,537.7,348.757,561.262,352.978,576.595Zm15.571,13.182c19.886-2.431,39.209-10.564,56.28-17.856C424.736,572.014,400.91,585.009,368.549,589.777Z" transform="translate(-70.732 -6.213)" fill="#fff"/><path d="M64.839,589.87a1.193,1.193,0,0,0-.563.094,7.511,7.511,0,0,0,3.377-1.309c-.75-1.589-1.313-2.711-12.663-7.292V580.9a88.444,88.444,0,0,1,9.568,4.394,11.8,11.8,0,0,1,3.471,2.992c-.75,1.215-.75,1.309-3.189,1.589Zm-10.13-10.284c-.094-.094-.094-.281-.188-.374,23.732-3.927,47.744-6.638,71.57-10.1-.938.654-.938.654-9.38,1.87l-62,8.6Zm117.626-468.1c-.188.187-.469.374-.563.561C150.2,90.26,140.349,80.35,115.491,57.352a3.5,3.5,0,0,0,.657-.561c18.572,17.2,34.519,32.067,56.374,54.6a.328.328,0,0,0-.188.093ZM53.208,511.432l-.563-.841c57.969-34.124,118.564-63.48,175.407-99.567a3.313,3.313,0,0,0,.188.935c-19.98,13.276-24.763,16.454-51.872,31.787C135.659,466.931,94.011,488.34,53.208,511.432Zm-8.442-4.207c-.188,0-.469.093-.657.093C31.258,461.415,17,392.607,15.5,384.847a10.157,10.157,0,0,0,1.782-.28c6.66,32.254,11.068,53.57,27.765,122.565A.345.345,0,0,1,44.766,507.225ZM24.223,368.86l-1.032-1.589C142.506,295.845,142.506,295.845,184.06,266.3c.281.561.657,1.215.938,1.683-39.584,27.673-39.584,27.673-160.774,100.876ZM229.272,404.2l-.375,1.122L25.349,376.246a12.487,12.487,0,0,0,.094-1.87l203.922,29.636c-.094.093-.094.093-.094.187ZM55.647,11.074c-.094.093-.281.093-.375.187l.375-2.8L57.71,6.867a.711.711,0,0,0,.375-.093,17.965,17.965,0,0,0-2.064,1.683A21.98,21.98,0,0,0,55.647,11.074Zm58.344,6.638c.281.093.563.28.844.374L59.211,6.68V6.493c.094,0,.281-.093.375-.093a.343.343,0,0,0,.094.28c.938.374.938.374,54.311,10.938C113.9,17.712,113.991,17.712,113.991,17.712Zm-10.13,29.73a1.325,1.325,0,0,0-.188.561c-30.86-19.726-39.209-26.177-46.337-33.1l.375-.374c6.847,6.357,10.881,10.19,46.15,32.908h0Zm9.849,1.5a7.606,7.606,0,0,0-.938-.841c7.129-8.6,14.445-17.389,7.035-27.766,1.407.561,5.722,3.366,3.377,14.21-.657,3.272-3.846,8.04-9.474,14.4Zm1.407-30.665c.281.093.563.28.844.374l-57.5-5.235a4.037,4.037,0,0,0,.094-.467l56.374,5.235c.094,0,.094.093.188.093Zm21.668,546.168c22.887-18.791,65.66-53.757,96.239-147.714a2.071,2.071,0,0,1,.75.094C220.079,459.545,195.222,521.342,136.784,564.441ZM311.066,308.466a8.155,8.155,0,0,0-.188,1.5c-32.08-16.828-53.185-26.084-108.246-44.782a12.87,12.87,0,0,0,.281-1.87c53.56,18.137,77.761,28.234,108.246,44.969C311.066,308.279,311.066,308.372,311.066,308.466Zm-74.947,87.88a5.585,5.585,0,0,1-.75.374C226.458,351.191,220.829,328.66,197,272c.469-.187,1.032-.561,1.5-.748,24.294,57.87,31.048,84.328,37.708,125.089ZM194.19,249.661c-.375-.093-.844-.093-1.219-.187-.469-53.1-1.595-75.727-12.1-121.443.375.093.938.093,1.407.187,8.911,38.985,12.569,64.415,11.913,121.443Zm7.316,5.89-.938-1.683c30.11-24.494,54.686-45.717,73.446-75.82.469.654.563.841,1.032,1.4C261.07,200.672,247.656,218.528,201.507,255.55ZM109.676,584.541c-1.219.187-1.219.187-1.313.28,9.38-3.179,16.7-5.7,20.449-13.65.375-.187.844-.374,1.219-.561-2.908,5.235-4.971,8.975-20.167,13.836A.328.328,0,0,0,109.676,584.541Zm27.577-19.259c32.174-18.511,52.153-30.478,89.111-61.329,0,.187.094.374.094.561C206.853,520.781,182.371,541.068,137.253,565.282Zm99.991-75.166-.938.561c5.909-25.9,7.5-39.079,1.595-75.072a12.223,12.223,0,0,0,1.407-.935c4.784,31.226,5.253,47.306-1.876,75.353a.328.328,0,0,1-.188.093Zm7.5-90.311-.375-1.028c27.015-27.019,46.619-46.558,66.974-79.092a7.313,7.313,0,0,0,.469,1.309c-13.226,20.194-26.827,40.949-67.067,78.812ZM115.4,16.684a5.3,5.3,0,0,1-1.126-.374c-5.722-2.057-13.132-5.235-19.041-6.731C90.072,8.27,83.036,7.522,77.69,6.961,99.358,8.644,111.458,14.721,115.4,16.684Zm63.315,94.425-1.032-.374c-6-28.327-13.507-63.573-53.373-88.722C124.778,22.106,166.331,37.813,178.713,111.109ZM179.932,35.1l1.126.561c-14.633-4.581-26.17-8.227-57.125-15.613l-1.126-.561c30.391,7.292,41.741,10.658,56.937,15.519a.328.328,0,0,0,.188.093Zm90.33,132.849c0,.374.094.841.094,1.122-19.98-12.06-40.616-24.494-82.732-45.156v-1.4c23.263,11.5,52.153,25.9,82.638,45.156v.28Zm-86.109-52.915a7.483,7.483,0,0,0-1.219-1.215c23.45-28.421,31.8-49.737,4.971-74.418.188.093,18.948,11.125,17.822,34.4C204.977,90.26,191.939,105.78,184.153,115.035Zm123.535,25.242c-4.69-6.638-11.068-15.613-16.134-21.97a3.278,3.278,0,0,1-.469-.748c4.5,5.89,10.506,13.65,14.727,19.726Zm-21.762-29.449v.187l-1.219-1.4v-.187A16.272,16.272,0,0,1,285.927,110.828Zm-171,472.591c28.422-8.788,71.382-22.064,113.593-78.064.281-.093.657-.093.938-.187C205.259,535.553,176.462,566.5,114.929,583.419Zm-1.313.561c40.334-11.219,49.9-13.836,84.233-30.852C197.661,553.316,170.365,570.331,113.615,583.98ZM343.239,218.342c-5.065-11.312-13.038-22.344-58.813-41.6a11.273,11.273,0,0,0-.469-1.683c33.3,14.3,52.528,25.149,58.719,41.323Zm-27.39,82.271a1.336,1.336,0,0,1-.563.187c-4.784-34.03-9.286-66.1-33.112-117.33a2.321,2.321,0,0,0,.844-.374c12.663,28.982,27.108,61.7,32.924,117.423l-.094.094Z" transform="translate(231.289 -6.213)" fill="#fff"/><path d="M502.527,169.533l-1.032-1.589c10.506-16.922,17.635-31.6,6.285-54.318C512,118.488,524.007,137,502.527,169.533Zm-4.878-5.329a6.314,6.314,0,0,0-1.126-.561c-7.129-30.01-19.135-80.214-82.732-121.911C414.448,41.92,478.7,73.613,497.649,164.2ZM462.662,489.269c25.326-35.713,59.845-84.7,72.7-165.384a6.493,6.493,0,0,1,.75.28C530.386,355.3,518.192,420.086,462.662,489.269ZM432.27,544.8l-1.032.561c16.04-15.987,20.167-23.466,23.45-42.351.469-.374.75-.561,1.313-1.028-3.283,18.417-6.754,26.271-23.544,42.818C432.364,544.708,432.364,544.708,432.27,544.8ZM556.65,401.108c-13.789,30.01-32.83,53.663-93.894,92.368a4.549,4.549,0,0,1,.375-1.028c3.658-3.646,10.13-6.544,14.445-9.349,59.188-38.237,73.071-69.182,79.73-84.047a10.341,10.341,0,0,1-.657,2.057Zm16.134-142.479c.188,11.5.375,25.9-30.016,50.765l-.188-1.87C560.214,292.1,574.566,277.7,572.5,256.572Zm-6.472,112.094c1.688-12.434,3.658-26.551-24.2-53.1a11,11,0,0,0,.375-1.87c12.945,13,29.172,29.169,24.294,52.915-.188.748-.281,1.4-.469,2.057ZM282.564,590.051h0Zm2.251-.093c4.127-.187,16.227-.935,39.115-4.02C321.117,586.5,299.636,589.3,284.816,589.957ZM379.648,573.5c-9.568,3.085-21.48,6.918-50.09,11.686,42.585-9.069,42.585-9.069,51.965-12.341C380.867,573.129,380.211,573.316,379.648,573.5Zm-81.794,16.08c6.847-.374,18.291-1.122,26.358-3.366l1.688-.28c-3.846,1.028-9.568,2.618-25.983,3.553a15.949,15.949,0,0,1-2.064.094ZM537.608,441.589c-14.07,22.531-40.334,64.508-101.492,102,4.409-4.768,12.569-8.414,17.916-12.06,8.817-5.8,54.311-37.676,85.64-93.77C539.015,439.065,538.265,440.373,537.608,441.589ZM405.256,563.219c8.63-4.394,13.413-6.731,19.135-11.873.563-.28,1.032-.561,1.595-.841a77.132,77.132,0,0,1-18.854,11.873c-.657.281-1.313.561-1.876.841Zm62.284-38.985c-11.725,8.788-17.166,12.808-34.8,21.97.375-.28.844-.561,1.219-.841,3.283-2.15,8.067-4.394,11.537-6.264a176.478,176.478,0,0,0,23.732-16.174A20.6,20.6,0,0,0,467.539,524.234ZM290.069,6.3l3.377.187L288.1,6.3ZM345.5,13.031c23.732,5.89,36.3,9.629,56.656,21.222-7.879-3.553-15.1-8.227-23.169-11.219-13.695-5.048-17.634-6.264-35.832-10.471a20.8,20.8,0,0,1,2.345.467Zm51.4,19.633a2.051,2.051,0,0,0,.469.28c-24.857-10.1-52.9-21.6-95.677-25.8-.188,0-.563-.093-.75-.093,23.919,2.9,50.934,6.17,95.958,25.616-.094-.093-.094,0,0,0Zm8.067.28a8.061,8.061,0,0,1,2.814,2.15c.281.467,0,1.309-.188,1.776l-1.595-.841a2.852,2.852,0,0,0-.094-2.15,7.037,7.037,0,0,0-2.626-1.683Zm89.955,64.321,7.223,8.134c-1.5-1.589-1.5-1.589-8.911-9.91C493.8,96.05,494.366,96.7,494.929,97.266Zm4.127,5.609c.094.093.188.28.281.374-18.76-18.137-40.053-38.7-83.764-61.61a2.486,2.486,0,0,1-.563-.467C438.18,53.98,466.883,69.873,499.056,102.875ZM71.795,99.7c-4.784,5.142-7.879,8.04-8.536,7.947-.375-1.5,12.944-15.8,15.2-16.361h.094C78.736,91.843,76.391,94.648,71.795,99.7Zm9.943,406.026c6.66,6.731,6.285,7.292,6.1,7.386-1.782.094-16.7-14.678-15.852-15.706h.094c.469,0,2.345.935,9.661,8.321Zm106.276,67.313,9.1,3.459c-1.688.187-19.135-6.357-20.824-7.573v-.094c.75.094.75.094,11.725,4.207Zm24.2-557.293-11.256,3.085c.844-.935,18.479-5.516,21.48-5.8a23.981,23.981,0,0,1-3.1.841c-1.219.28-4.033,1.028-7.129,1.87ZM13.92,239.464c-1.876,8.134-5.065,11.593-6.66,9.255-2.439-3.646,1.126-21.6,5.722-21.97,2.72.374,2.251,7.105.938,12.715Zm127.663,297.3c4.971,4.207,5.534,5.89,4.409,5.983-3.564.374-18.291-10.938-16.6-12.715a.793.793,0,0,1,.657-.187C132.2,529.937,136.611,532.648,141.582,536.761Zm-99.616-195.3c.563,8.788-3.658,12.06-7.6,8.6-5.44-4.862-6.472-21.5.188-21.877,3.846.093,6.941,5.7,7.41,13.276Zm50-184.923c-4.127,9.723-12.006,12.247-13.695,7.76-1.782-4.861,4.6-17.2,11.631-17.483,3.658.094,4.5,4.114,2.064,9.723Zm14.07,284.209c2.814,7.666-.938,10.845-6,8.508-7.41-3.459-12.007-16.735-6.472-18.7a10.388,10.388,0,0,1,1.5-.28C99.466,430.557,103.874,434.67,106.032,440.747Zm98.4-411.168c-7.129,4.3-10.6,4.674-10.506,3.646.188-1.963,11.725-8.134,15.665-8.321.469,0,1.219.093-.469,1.5A47.23,47.23,0,0,1,204.429,29.579Zm52.716,557.947,6.754,1.215c-1.5.093-14.351-1.963-16.227-2.992a.092.092,0,0,0,.094-.093c.094,0,.094,0,9.38,1.87Zm-42.4-24.494c3.1,2.618,3.94,4.3,2.157,4.394-4.315.28-15.289-7.386-13.226-9.256a2.071,2.071,0,0,1,1.126-.28C207.336,557.984,211.088,559.947,214.747,563.032Z" transform="translate(10.187 -6.207)" fill="#fff"/><path d="M127.033,590.044h-1.313A6.148,6.148,0,0,1,127.033,590.044ZM41.3,257.22c-.657,11.873-13.132,14.4-18.666,8.414-5.065-5.422-3.564-19.446,8.536-20.1C37.641,245.721,41.674,250.4,41.3,257.22ZM125.438,6.387l-1.688.28a3.542,3.542,0,0,1-1.5.187,13.6,13.6,0,0,1,4.784-.654C126.845,6.2,126.282,6.293,125.438,6.387ZM91.013,373.9c.281,11.312-12.194,13.65-18.573,8.04-6.191-5.422-5.065-18.511,6-19.259h.938C87.73,363.051,90.919,368.754,91.013,373.9Zm7.41-226.339c-1.219,9.816-13.6,11.312-18.1,5.983-3.846-4.674-1.5-15.706,9-16.08,6.191-.093,9.849,4.114,9.1,10.1Zm22.043,432.391c.75,2.618-1.595,3.366-3.94,1.963-2.345-1.309-4.033-4.488-1.5-5.235a3.534,3.534,0,0,1,.938-.093,4.677,4.677,0,0,1,4.5,3.366Zm3.658-567.016a3.572,3.572,0,0,1-3.564,2.711c-2.439,0-2.439-2.057-.75-3.74a4.1,4.1,0,0,1,2.72-1.215,1.651,1.651,0,0,1,1.595,2.244Zm-4.409,502.227c0,7.292-8.911,9.162-13.6,4.394-4.221-4.3-3.189-12.341,4.971-12.434C117.465,507.493,119.716,511.513,119.716,515.159Zm62.1-462.588c2.157,4.861-2.157,6.264-6.1,4.861-5.44-1.963-8.63-9.442-4.878-11.125a4.784,4.784,0,0,1,1.876-.374c4.315.187,7.785,3.553,9.1,6.638ZM128.44,589.951h-1.407a39.182,39.182,0,0,0,4.878-.281c.281,0,.657-.093.938-.093a18.21,18.21,0,0,1-4.409.374ZM268.484,261.24c.469,11.312-10.318,14.023-16.134,8.695-5.722-5.235-6.191-19.913,5.44-20.568C262.668,249.461,268.109,253.2,268.484,261.24ZM252.444,119.6c2.908,7.573-2.908,10-8.254,7.573-7.223-3.272-10.693-14.3-5.065-16.361a6.9,6.9,0,0,1,2.064-.374c4.5.093,9.192,3.833,11.256,9.162ZM198.227,569.1c-5.159,3.085-10.412,4.581-10.13,3.366.281-1.683,10.037-8.04,13.882-8.04,1.219,0,1.313.748.188,1.87A23.871,23.871,0,0,1,198.227,569.1ZM309.662,407.739c-3.283,9.442-12.757,11.78-15.383,5.7-2.251-5.329,1.782-17.483,10.6-17.763C310.976,396.053,311.632,402.13,309.662,407.739ZM186.784,18.821c4.315,1.87,5.816,3.179,5.065,3.366-1.595.467-15.477-5.422-15.383-6.544.094,0,.188-.093.281-.093a47.879,47.879,0,0,1,10.037,3.272ZM304.222,498.05c-5.44,6.638-11.819,9.162-12.194,5.983-.469-3.74,8.254-14.678,14.07-14.958C308.724,489.075,308.912,492.254,304.222,498.05Zm44.743-324.6c3.1,7.947.281,11.593-4.315,9.536-6.847-3.179-11.819-17.95-6.66-19.726a4.855,4.855,0,0,1,1.032-.187C342.493,163.263,346.62,167.47,348.965,173.453ZM137.444,6.48c5.159.28,8.911.654,9.568.748-6.66-.187-13.226-.935-19.886-.935C130.6,6.293,134.068,6.293,137.444,6.48Zm34.05,579.17c-5.347,1.028-10.224,1.776-10.787,1.776.094,0,18.948-3.927,19.886-4.02-.281.467-6.285,1.776-9.1,2.244Zm215.741-272.8c-.563,10.377-5.722,13.463-8.723,10-4.315-4.862-2.626-22.251,3.658-22.438C386.2,300.693,387.611,306.863,387.235,312.847ZM252.913,37.332c3.283,1.776,7.223,4.114,7.41,4.768-.844.561-18.666-8.508-19.417-10L241,32C242.5,32.284,247.848,34.621,252.913,37.332ZM272.8,549c-4.6,2.8-9.943,5.609-10.6,5.329.281-1.122,16.79-11.219,18.76-11.5h.094C281.335,543.486,276.926,546.478,272.8,549Zm78.323-438.467c2.251,2.618,6.472,7.853,6.472,8.6-.938,0-14.445-15.987-14.445-17.109.75.28,4.6,4.581,7.973,8.508Zm53.091,113.684a3.787,3.787,0,0,1,.469.841c-5.816-33.189-10.037-49.176-31.423-84.889l-1.97-2.992c20.73,34.311,26.264,48.9,32.83,86.852Z" transform="translate(165.719 -6.2)" fill="#fff"/><path d="M230.59,110.822l-1.219-1.4c-1.5-.561-3.377-1.215-29.266-2.337a13.381,13.381,0,0,1,1.032,1.4C215.863,109.232,229.183,109.887,230.59,110.822Zm55.342,119.854.469,1.589c2.345-7.105,2.72-8.227,1.5-13.93l-.563-1.87c.938,7.012,1.032,8.04-1.407,14.023ZM280.21,401.108a18.147,18.147,0,0,0,.75-2.057c1.126-3.74,2.814-8.695,3.564-12.528C282.837,391.2,281.992,396.246,280.21,401.108Zm16.134-142.478-.281-2.057c-2.72-10.19-2.908-11.032-8.63-19.352a5.852,5.852,0,0,0,.281,1.776c1.032,2.524,3.377,5.422,4.784,7.666,1.97,3.179,3.1,8.227,3.846,11.967ZM287.527,376.52c-.094.561-.281,1.028-.375,1.5l2.72-7.386.469-1.963-2.72,7.666a.326.326,0,0,1-.094.187ZM6.5,590.051ZM103.208,573.5c.657-.187,1.219-.467,1.876-.654l7.692-3.085C109.587,571.072,106.4,572.381,103.208,573.5ZM8.845,589.957H7.157l14.258-.374c.657,0,1.313-.094,2.064-.094-6.285.28-7.6.374-14.352.467H8.845ZM261.169,441.589l2.157-3.833c11.725-23.746,12.944-26.177,19.6-47.119l-.281.561c-2.439,5.609-4.6,13.556-6.66,19.352-3.377,9.816-10.037,21.97-14.82,31.039ZM119.624,566.959a9.493,9.493,0,0,0-1.407.654l10.6-4.394,1.876-.841L119.9,566.959ZM191.1,524.234l1.688-1.4c10.224-9.162,15.289-13.837,21.293-24.588a14.923,14.923,0,0,0-1.219,1.215c-1.876,2.15-3.658,5.7-5.253,8.134C207.421,507.78,203.106,514.324,191.1,524.234ZM13.629,6.3Zm55.436,6.731-2.345-.467C48.147,9.2,39.612,7.609,16.63,6.487A305.319,305.319,0,0,1,69.065,13.031Zm59.47,19.913-1.688-.748c-3.377-1.309-8.067-3.085-25.7-5.8a10.439,10.439,0,0,0,1.5.654,56.153,56.153,0,0,0,5.722.935c1.407.187,14.539,2.431,20.167,4.955Z" transform="translate(286.627 -6.207)" fill="#fff"/><path d="M453.62,97.279,451.932,95.5C437.768,82.04,408.314,54.086,341.247,28.844c4.6,2.618,11.35,4.768,16.227,6.731C370.7,41,391.149,51.188,402.217,57.919c27.015,16.454,39.678,27.3,51.4,39.359ZM327.083,22.861l.844.28c-21.48-8.788-35.457-13.93-72.883-16.548a4.582,4.582,0,0,1-1.126-.093c25.139,2.057,43.336,3.553,72.977,16.267a.291.291,0,0,0,.188.093Zm5.253,3.553c-1.595-.748-2.345-1.122-49.9-2.992.188.187.281.561.563.561Zm-80.293,563.37h-.469c26.077-1.963,50.746-3.833,87.7-17.015l.375-.187c-25.139,8.134-48.964,15.706-87.61,17.2ZM359.35,564.634c.469-.187,45.962-18.6,84.889-62.264-5.722,2.992-10.6,10.658-15.1,15.239C428.106,518.731,402.123,545,359.35,564.634Zm-9.38,3.833c2.064-.841,2.345-.935,3.283-2.244a5,5,0,0,0,.657-3.085c-.281-1.683-3.1-3.459-5.347-4.862l-1.407.841c3.283,2.057,4.6,2.992,5.253,4.955C352.878,565.85,351.565,567.065,349.97,568.467ZM522.939,370.643c5.628-28.795,12.569-64.6-.281-125.463C528.66,280.706,534.476,314.269,522.939,370.643ZM515.9,225.173c0-.28-13.32-47.119-76.729-110.505a1.182,1.182,0,0,1-.094.561C469.378,146.922,494.329,175.156,515.9,225.173ZM432.327,247.8a7.2,7.2,0,0,1,.188,1.4c13.883-1.309,61.158-6.17,84.8-13.089-.188-.654-.281-1.215-.469-1.87-15.008,4.207-33.674,7.666-84.608,13.369A.326.326,0,0,0,432.327,247.8ZM354.1,554.07a1.29,1.29,0,0,0-.281.374c17.728-8.414,54.592-25.8,89.861-53.85.188-.374.469-.654.657-1.028-16.79,12.808-42.3,31.973-90.236,54.5Zm.75-57.4a9.1,9.1,0,0,1-.469,1.028c36.488,0,92.863-2.15,93.238-2.15.375-.467.844-.935,1.219-1.4-9.661.467-25.983,1.215-93.988,2.431v.093Zm103.274-10.19c17.072-19.726,40.334-46.838,58.532-94.612l-.094-.467C506.055,416.453,492.922,447.679,458.122,486.477Zm-6.566,4.674c.281-.28,26.452-33.376-52.622-97.977a8.525,8.525,0,0,1-.75,1.215c29.266,26.271,65.567,58.992,53.373,96.762Zm68.85-114.619c.188-.467,14.445-46.184-87.985-122.191a6.87,6.87,0,0,1-.375,1.309c36.864,29.262,87.234,69.276,88.36,120.882Zm-119.6,10.938a5.455,5.455,0,0,1-.188,1.215c41.272-.467,104.588-4.02,118-6.17l.563-1.87c-10.975,1.589-29.266,3.459-118.283,6.638C400.81,387.284,400.81,387.378,400.81,387.471ZM14.352,482.363c-4.033-6.638-7.5-12.247-3.283-22.438-.375-.467-.75-1.028-1.126-1.5-2.064,6.918-3.752,12.9,3.189,22.438Z" transform="translate(51.496 -6.22)" fill="#fff"/><path d="M143.9,590.044h0Zm7.6-.187c58.063-1.589,82.263-19.82,93.8-28.514-.281.094-.657.28-.938.374-3.1,1.683-6.66,4.861-9.474,6.918-6.1,4.488-15.571,8.788-22.887,10.938-23.638,7.292-30.954,8.508-60.5,10.284Zm-8.442.094c-4.784-.094-16.415-.748-41.46-4.581C102.631,585.65,125.706,589.39,143.059,589.951ZM329.722,239.364a11.707,11.707,0,0,1,1.126.841c9.1-29.636,22.794-74.511,6.472-124.9-.375-.187-.844-.561-1.219-.748,10.037,35.994,12.1,67.967-6.66,124.622.188.094.281.094.281.187ZM327.565,99.316h.469c-16.7-20.194-37.52-45.343-82.169-68.809H245.4C268.845,43.783,295.3,58.741,327.565,99.316ZM248.3,93.8c.281.28.657.467.938.748C257.4,79.963,272.5,52.758,241.456,29.1l-1.407-.561c11.631,9.629,31.048,25.8,8.067,65.069C248.209,93.8,248.209,93.8,248.3,93.8Zm81.325,13.93c-.281-.374-.469-.748-.75-1.122-11.068-1.5-21.48-2.992-76.26-7.386l.563,1.309ZM250.836,554.611c.188-.094,17.822-13.089,2.439-52.261a16.029,16.029,0,0,1-1.313,1.028c7.129,18.978,10.506,31.88-1.126,51.232ZM146.9,589.951h-.563c21.011-1.683,43.992-5.048,93.894-27.86a2.043,2.043,0,0,1,.375-.467c-29.735,13.556-59.376,25.8-93.707,28.327Zm12.475-4.02c-.094.093-.281.187-.375.28,42.116-11.406,64.722-19.259,82.826-25.616.281-.281.657-.468.938-.748C224.759,566.2,202.341,574.057,159.38,585.931Zm138.45-208.2c.188.093.469.093.75.187a475.969,475.969,0,0,0,27.953-117.049c-.469-.094-1.032-.28-1.407-.374-3.564,27.019-8.442,64.041-27.39,117.236,0-.093,0-.093.094,0ZM322.124,238.8c.375-.187.938-.374,1.313-.561-19.135-46.651-34.706-78.158-71.757-131.26a3.127,3.127,0,0,0-.563.28C281.227,152.979,298.111,179.53,322.124,238.8Zm-159.18,35.246c.281.093.563.374.844.467,68.568-102.558,77.854-149.864,81.325-167.721-.375-.187-.938-.467-1.407-.748-9.1,41.883-22.325,74.418-80.95,167.814C162.851,273.955,162.945,273.955,162.945,274.048Zm5.909,7.573.281,1.776c50.84-9.442,100.554-18.978,149.518-30.852-.094-.561-.281-1.309-.375-1.87-25.8,6.17-61.064,14.491-149.424,30.852v.094ZM239.861,91.65a2.214,2.214,0,0,1,.75-.187c-11.068-16.454-27.859-41.229-53.842-63.947-.094,0-.281.093-.375.093C200.09,40.511,215.473,55.189,239.861,91.65ZM237.7,98.194a6.53,6.53,0,0,1-.281-1.309L124.674,72.391c-.094.374-.281.841-.375,1.122ZM287.23,383.058c.188-.374.563-.841.75-1.215-14.164-13.089-40.522-37.4-120.159-91.433-.188.374-.563.935-.75,1.309,94.363,67.874,94.363,67.874,120.159,91.34ZM159.755,585c9.38-5.329,37.989-21.409,84.89-79.84-.281-.093-.657-.28-.938-.374C229.637,521.89,192.4,567.42,159.755,585Zm94.457-95.921a1.194,1.194,0,0,1,.563.093c13.507-25.149,22.7-43.66,37.239-89.937a7.264,7.264,0,0,1-1.407-.187c-10.506,32.908-16.884,51.887-36.582,90.031h.188Zm-105.432-87.88c0,.28.094.654.094.841,10.975-.561,44.274-2.431,136.2-11.686.094-1.122.094-1.122.188-1.776l-136.48,12.434Zm5.159,128.175c.094.187.094.374.188.561,7.129-2.15,28.7-8.695,87.8-29.075.094-.561.094-.654.188-1.309L153.94,529.182Zm-7.879-4.02c.375,0,.844-.094,1.126-.094-.938-18.885-1.5-32.628-7.879-112.094a10.812,10.812,0,0,1-1.782.093l8.536,112.094ZM245.677,493a7.6,7.6,0,0,1,.938-.841c-14.07-17.389-33.393-38.144-99.241-83.767a8.78,8.78,0,0,1-.844,1.122C196.9,446.257,222.226,464.674,245.677,493ZM124.017,67.155a5.548,5.548,0,0,1,.375.748C160.6,47.336,172.887,38.267,181.236,26.02l-.844-.561c-9,13-20.73,20.942-56.374,41.6ZM148.781,6.293Zm34.519,15.8c.188.187.469.28.657.467,3.94-3.085,14.258-11.032-13.695-14.865-6.472-.841-13.507-1.215-17.634-1.4A12.613,12.613,0,0,1,150.75,6.2q47.275,1.963,34.519,14.117c-.563.561-1.407,1.122-1.97,1.589Zm-6.1.28c-.094-.093-.188-.374-.281-.467-2.626-1.028-6.285-2.057-8.911-2.9C145.216,11.9,138.932,9.566,138.275,7.135a11.692,11.692,0,0,1,2.908-.935c-2.439.187-2.626.374-3.471,1.215C139.213,9.94,142.965,11.809,177.2,22.374ZM143.9,590.044Z" transform="translate(148.849 -6.2)" fill="#fff"/><path d="M474.168,590.051c1.688,0,6-.374,6.1-.374a19.188,19.188,0,0,0,5.44-2.057c-1.032.374-1.876,1.215-2.908,1.4a65.881,65.881,0,0,1-8.63,1.028ZM296.51,66.04l-.188.187c.563-.467,1.219-.841,1.782-1.309L296.51,66.04ZM468.728,6.3h0Zm18.854,578.983c.188,0,13.882-5.7-7.035-47.586a5.041,5.041,0,0,1-1.032.467C486.832,553.59,496.962,574.718,487.582,585.283Zm-14.727,4.674h.657a14.087,14.087,0,0,1-2.064-.187.326.326,0,0,1,.094-.187c1.595-.561,3-.841,12.006-2.244.094-.093.281-.187.375-.28-11.35,1.776-12.475,2.15-12.944,2.618a6.065,6.065,0,0,0,1.876.28ZM445.372,65.105a5.3,5.3,0,0,1,1.126-.374c-2.908-18.7-8.442-53.663,21.574-58.151C453.157,8.17,436.93,19.576,445.372,65.105Zm24.2,524.759c-13.226-1.309-24.294-5.329-37.989-11.5v.187C447.154,585.1,455.033,588.274,469.572,589.864Zm.375,0h.281c-18.1-3.553-23.356-13.276,3.189-51.98a3.121,3.121,0,0,1-.938-.561c-19.98,29.917-26.827,48.147-2.533,52.541Z" transform="translate(-181.042 -6.207)" fill="#fff"/><path d="M304.091,529.556a5.541,5.541,0,0,1,.375-.748c-13.883-6.825-13.883-6.825-70.819-32.534,0,.28-.094.654-.094.935ZM258.5,573.309a3.8,3.8,0,0,1,.844.467c2.533-8.414,7.692-17.109,45.587-37.863a4.944,4.944,0,0,1-.563-.935C281.3,547.974,260.38,560.595,258.5,573.309Zm58.907-300.2,1.97-.374c-25.42-113.029-33.956-151.173-37.145-194.459-.281.093-.657.093-.938.187C284.112,123.343,290.584,152.138,317.411,273.114ZM44.92,426.811c5.722,8.414,10.13,15.052,28.7,27.112-.281-.467-.281-1.122-.75-1.5-2.439-2.337-6.378-4.488-9.192-6.357-2.157-1.5-13.226-9.536-19.6-20.942C44.357,425.6,44.639,426.25,44.92,426.811ZM311.97,276.292l1.126-1.028c-81.513-90.311-81.513-90.311-104.306-125.089-.281.28-.75.561-1.032.841,21.293,34.217,42.773,59.927,104.212,125.276ZM228.394,486.551a8.19,8.19,0,0,1,.938.748c13.789-19.726,24.576-35.433,65-76.194a16.3,16.3,0,0,1-1.407-1.215c-27.765,28.421-45.962,47.773-64.816,76.568C228.3,486.457,228.3,486.457,228.394,486.551Zm-84.327-69.556.281.841c48.776-3.459,97.365-9.162,146.141-13.276-.094-.561-.094-1.215-.188-1.776L143.973,416.807C143.973,416.9,143.973,416.994,144.067,416.994ZM302.4,392.126a6.4,6.4,0,0,1,1.407.187l16.321-95.921a12.489,12.489,0,0,1-1.97-.28l-15.946,95.921c0,.094.094.094.188.094ZM136.469,294.99v1.028c57.594-1.87,115-6.731,172.5-9.91a19.328,19.328,0,0,1-.094-1.963L136.376,294.8C136.469,294.9,136.469,294.9,136.469,294.99ZM291.053,398.2a13.052,13.052,0,0,1,.844-1.589c-69.788-38.05-113.124-63.2-156.084-94.986-.188.561-.469,1.215-.657,1.776,39.209,28.327,71.007,48.8,155.9,94.8ZM211.041,135.964c.375.374.469.561.75.841l63.972-59.553a6.064,6.064,0,0,1-.844-.748l-64.066,59.273c.094.093.094.187.188.187ZM277.358,66.22a11.964,11.964,0,0,1,1.126-.654c-10.6-20.194-17.541-36.742-3.658-50.578-2.814.935-9.192,8.414-8.723,18.417.563,11.219,4.033,19.539,11.256,32.815Zm-3.283,4.674.281-.841c-61.346-11.78-61.346-11.78-75.04-15.706a6.062,6.062,0,0,1-.844.748C204.944,57.058,220.046,61.826,274.075,70.895ZM105.984,116.331c.188,0,.469-.093.657-.093h.094c31.329-43.286,61.252-72.922,121.472-96.388C180.462,38.921,145.193,60.892,105.984,116.331Zm-6,4.394c.375-.467.938-.654,1.219-1.215,1.313-2.618.657-6.731.938-9.629.75-8.227,5.534-21.69,23.825-39.64-7.316,5.516-24.482,21.6-25.983,50.485ZM196.127,50.14a5.986,5.986,0,0,0,1.313-.748c1.97-1.683,2.814-5.235,3.94-7.479,5.909-11.219,23.169-19.352,31.423-23.279-6.566,1.963-18.385,9.349-20.073,10.845-10.506,8.975-10.881,9.629-16.6,20.661Zm7.316-1.4v.374c26.827-15.332,41.272-23.185,67.724-33.843l.188-.28c-24.951,10-40.24,17.576-67.912,33.75h0ZM133.655,408.206c.375,0,.844.093,1.219.093-4.971-30.571-8.536-52.728-7.129-99.847a3.657,3.657,0,0,1-1.407-.187c-.563,31.413-.844,56.187,7.316,99.941ZM242.839,15.455c-.375.093-.75.28-1.126.374,10.506-2.15,38.364-7.76,62.19-9.442a2.605,2.605,0,0,0,.844-.093c-24.482,1.589-52.435,7.292-61.627,9.069C242.933,15.455,242.933,15.455,242.839,15.455Zm40.24-4.581-.094.093c5.534-1.5,12.944-3.366,18.573-4.3h.281a181.424,181.424,0,0,0-18.76,4.207ZM240.588,16.2l-1.407.467c6.472-.748,14.539-1.589,34.988-3.272.281-.187.657-.28.938-.467-8.442.654-22.7,1.87-34.331,3.179a.328.328,0,0,0-.188.093ZM108.236,117.827v.467c18.948-16.174,42.585-36.274,79.168-59.179,0-.187.094-.467.094-.654-18.01,11.593-48.026,30.945-79.261,59.366Zm91.456,18.791a7.353,7.353,0,0,1,1.407-.935c-7.785-20.381-18.385-48.334-7.223-77.223C193.594,58.554,176.9,81.459,199.691,136.618ZM118.929,295.832a12.679,12.679,0,0,1,.188-1.963c-29.078-5.8-35.926-7.386-56.562-12.621-.094.841-.094,1.122-.188,1.963C83,288.446,89.569,289.942,118.929,295.832Zm11.819-10.658c.188.094.469.28.657.374,17.541-43.473,29.172-72.174,67.161-132.662-.375-.187-.844-.374-1.219-.561-23.263,37.3-45.868,75.54-66.786,132.849.094-.094.094-.094.188,0ZM195.189,143.35a6.48,6.48,0,0,1,.469-1.215l-90.611-16.641c-.375.467-.657,1.028-1.032,1.5,16.04,4.02,36.395,8.6,91.174,16.361Zm-72.977,143.6a11.884,11.884,0,0,1,1.219-1.028c-24.67-57.122-36.582-100.6-24.388-153.51C98.668,132.6,73.623,177.567,122.212,286.95ZM254.283,571.72c.094,0,.281.094.375.094-10.693-11.593-25.326-27.486-28.422-70.865-.563-.187-.75-.187-1.313-.374,2.251,19.913,5.722,49.924,29.266,71.052a.092.092,0,0,0,.094.093Zm-37.145-84.234a5.546,5.546,0,0,1,.375-.748c-48.026-39.172-49.9-40.668-72.883-61.516-.094.28-.281.654-.375.935,18.1,16.641,30.016,27.673,72.883,61.329ZM145.85,527.78l1.032.841c6.1-6.451,15.2-16.08,71.851-33a9.329,9.329,0,0,1-.75-1.309c-21.762,6.638-62.19,19.072-72.32,33.376a.328.328,0,0,1,.188.093ZM260,584.154l1.407.28c-1.313-.748-3.471-1.5-3.94-2.8-.844-2.337-.844-2.431,1.032-5.048l-1.126-.561c-.75,1.028-2.157,2.524-1.876,3.646.657,2.15.938,2.431,4.315,4.394A.291.291,0,0,0,260,584.154ZM253.72,573.87c-3.1-2.524-8.723-3.272-12.382-4.487-42.3-14.678-64.91-24.588-89.767-36.555.094,0,26.358,15.8,102.149,41.042ZM136.938,523.105c.094,0,.188-.093.281-.187-21.949-20.287-31.048-28.7-52.435-57.59-.094,0-.188.093-.281.187,17.259,22.9,25.139,33.376,52.435,57.59Zm4.127,1.309.938.561c-16.7-27.673-22.887-51.606-7.6-98.258a13.991,13.991,0,0,1-1.313-1.122c-11.725,37.863-13.883,64.788,7.879,98.725-.094,0,0,.094.094.094ZM143.692,56.5l-7.035,5.048,9.849-6.825A17.769,17.769,0,0,0,143.692,56.5Zm-6.66,5.048c-.281.187-.563.467-.844.654,29.641-18.885,49.058-29.075,92.863-43.1.281-.093.657-.28,1.032-.374-40.522,12.9-60.5,22.157-92.956,42.725A.092.092,0,0,1,137.032,61.546ZM39.011,206.362v.935c13.695-24.307,22.7-40.388,54.4-74.324v-.841C71.184,156.438,57.677,171.957,39.011,206.362Zm17.541,62.545c.188,0,.563-.094.75-.094,3.377-34.965,7.6-78.438,38.458-134.625-.188,0-.469.094-.75.094C80.658,161.767,61.054,199.35,56.551,268.906Zm72.6,141.637a7.606,7.606,0,0,1,.844-.935c-28.234-36.181-51.309-67.967-69.788-119.854a11.684,11.684,0,0,1-.844,1.122c10.881,28.7,23.169,61.329,69.788,119.667ZM71.841,447.192c.094-.093.188-.187.188-.28C57.677,422.6,50.454,410.357,40.7,384.273l-.281.28C50.173,408.674,55.519,421.856,71.841,447.192Zm7.973,5.89a7.8,7.8,0,0,1,.75,1.122c11.068-11.125,19.135-17.483,49.9-31.88-.375-.654-.469-.935-.844-1.683-26.733,12.715-38.364,19.446-49.9,32.254a.326.326,0,0,1,.094.187ZM128.4,416.62a13.09,13.09,0,0,1-.188-1.683c-39.209-13.649-63.5-23.466-87.61-39.079l.281,1.4c15.477,10.471,31.8,20.1,87.516,39.359ZM52.143,274.235l.657-1.589C42.106,251.33,38.917,244.132,35.446,221.6c0,.093-3.752,12.808,16.7,52.635ZM36.478,364.547l.563.841c1.595-21.316,3.189-41.416,16.134-74.792a13.834,13.834,0,0,1-.75-1.215c-7.879,22.531-15.289,43.847-16.04,74.979,0,.093,0,.093.094.187Zm216.3,218.205c-25.8-7.76-54.967-16.548-98.584-46.745C175.3,550.311,204.193,569.757,252.782,582.752Zm-135.26-62.825c4.784,2.992,7.879,4.955,24.67,9.536-.469-.374-.75-.935-1.313-1.122-2.064-.841-5.065-1.4-7.223-2.057-10.975-3.085-15.946-6.451-17.635-7.573a9.469,9.469,0,0,1,1.5,1.215ZM195,567.513c-19.979-9.162-34.05-16.548-46.619-33.469-.469-.28-.938-.654-1.407-.935,8.067,10.19,15.665,19.913,45.962,33.563.75.28,1.407.561,2.064.841ZM117.334,76.5l5.159-4.207a6.569,6.569,0,0,1,.938-.748l-3.94,3.179ZM37.041,205.333c5.253-4.02,4.971-14.678,7.035-21.035,5.628-17.857,24.388-64.414,77.573-110.972C89.663,102.4,56.833,136.525,37.041,205.333Zm1.782-22.718c-4.5,14.491-4.784,15.332-4.878,28.327a11.39,11.39,0,0,0,.657-1.589c.657-3.179.281-7.573.375-10.845.188-5.516,2.908-12.621,4.69-17.857ZM259.442,10.22c-6.191,1.122-15.571,2.9-21.293,5.983,2.908-.841,5.534-2.337,8.442-3.085a130.685,130.685,0,0,1,14.82-3.179l-1.97.28Zm-35.175,8.134c2.533-.561,4.6-.748,11.068-1.309a11.372,11.372,0,0,1,1.688-.467c-6.285.561-8.536.748-10.881,1.309a11,11,0,0,0-1.876.467ZM33.758,401.1c-1.782-8.695-2.626-13.089,1.5-22.718-.188-.561-.469-1.122-.657-1.776-2.908,8.975-4.315,13.463-1.595,22.625.281.654.469,1.309.75,1.87ZM280.829,588.829c-8.536-.841-14.07-1.683-17.447-3.272a10.936,10.936,0,0,1-1.688-.374c2.439,1.215,5.253,2.244,17.072,3.459a14.086,14.086,0,0,1,2.064.187Zm-65.285-13.65c10.224,2.992,19.323,5.516,43.9,9.443-15.2-3.553-30.86-5.422-45.775-10l1.876.561ZM33.57,362.77c-9.192-50.391-12.1-78.531-1.313-136.215C23.158,271.8,21,303.778,33.57,362.77ZM22.689,231.043c3.471-7.012,3.564-7.105,8.723-11.873a12.411,12.411,0,0,1,.469-1.776c-6.66,6.918-6.941,7.105-8.63,11.78a10.9,10.9,0,0,0-.563,1.87ZM15,306.583c2.908,26.084,4.5,32.908,17.541,60.581a7.01,7.01,0,0,0,0-1.4c-1.313-4.768-4.878-10.471-7.035-14.958a135.517,135.517,0,0,1-10.6-46.838A23.571,23.571,0,0,1,15,306.583Zm570.307,74.792c-.938,3.085-2.908,10.284-1.97,10.751,1.688-.561,7.785-21.129,6.472-21.97C588.964,370.437,587.275,374.644,585.305,381.375ZM414.494,569.2c-3,1.215-6,2.15-8.911,3.646,1.313.094,19.7-7.386,20.918-8.414C426.313,564.428,426.313,564.428,414.494,569.2ZM583.242,234.222c2.251,10.19,4.878,12.528,5.722,11.032,1.97-3.553-2.626-21.783-5.628-22.157C582.679,223.1,581.272,224.405,583.242,234.222ZM307.655,590.044c6.285,0,10.975-.187,11.068-.187Zm207.018-95.266c-5.065,5.8-5.909,7.947-5.065,8.04,2.814.187,16.509-15.052,14.914-16.454a.412.412,0,0,0-.281-.093C522.74,486.364,519.082,489.636,514.673,494.778ZM311.689,6.293l11.444.374c-.094,0-6.191-.374-15.477-.467C309.063,6.293,310.376,6.293,311.689,6.293Zm86.672,19.913c7.129,3.272,10.975,4.674,11.444,4.207-.094-1.5-15.852-8.04-18.76-8.227h-.094a.092.092,0,0,1-.094.093C391.138,22.748,391.982,23.309,398.361,26.207Zm94.926,81.43c6.378,8.6,11.819,9.91,12.194,7.292.563-3.927-9.1-15.613-14.07-15.706C488.6,99.409,490.379,103.71,493.287,107.636ZM408.866,558.164c-5.816,4.02-5.065,4.581-4.5,4.674,3.377.467,18.01-8.414,16.7-10.1-.094-.187-.469-.187-.657-.187C418.059,552.648,413.838,554.7,408.866,558.164Zm72.977-308.61c1.313,11.593,11.068,14.3,15.289,8.6,4.315-5.8,1.219-19.82-7.973-20.194C484.939,238.055,481,241.7,481.843,249.554Z" transform="translate(-14.904 -6.2)" fill="#fff"/><g transform="matrix(1, 0, 0, 1, -141, 213.57)" filter="url(#c)"><path d="M564.032,388.486c-1.688,10.564,7.223,13.182,13.038,8.6,6.941-5.329,7.316-18.511-1.219-19.539a3.9,3.9,0,0,0-.938-.094c-6.847.467-10.13,6.264-10.881,11.032ZM422.674,590.051c2.345,0,3.846-.093,3.846-.093Zm98.772-92.368c-2.626,6.451,1.688,9.256,7.035,6.918,6.472-2.711,11.537-12.715,6.378-15.052a5.536,5.536,0,0,0-2.345-.467c-5.628.28-9.474,4.768-11.068,8.6Zm-4.033-397.238c4.127,8.04,13.132,9.069,14.82,4.581,1.5-3.927-3.658-13.369-11.631-13.743-4.5.093-5.909,3.927-3.189,9.162Zm-60.22-76.568c4.221,4.3,9.192,4.581,9,2.711-.188-2.15-6.1-6.451-9.755-6.638C454.191,19.95,455.317,22.006,457.193,23.876ZM433.086,586.965c-1.782,1.122-1.876,1.309-1.876,1.4.469.748,7.316-2.057,7.41-2.992q0-.28-.563-.28C436.275,585,433.93,586.4,433.086,586.965Zm-9.1-302.253c.188,12.154,14.258,14.678,20.636,8.414,6.472-6.357,3.94-20.1-8.63-20.474C430.084,272.746,423.893,276.486,423.987,284.713Zm-5.253,247.842c.563,6.451,8.817,8.04,12.663,3.74,3-3.459,2.439-10.845-5.347-10.938C422.205,525.262,418.359,527.6,418.734,532.554ZM405.227,402.791c.469,11.312,13.883,13.089,19.7,7.012,5.44-5.609,2.533-17.576-8.723-17.763C408.7,392.32,404.946,397.649,405.227,402.791ZM388.812,72.21c-.844,6.825,7.316,8.04,11.819,4.488,4.6-3.74,4.033-11.5-2.345-12.154h-.75A8.724,8.724,0,0,0,388.812,72.21ZM332.532,493.2c3.189,8.227,13.226,10.471,15.571,5.142,1.876-4.207-2.064-13.369-10.693-13.743C331.406,484.875,331.031,489.362,332.532,493.2ZM420.892,6.3l-4.6.374h.657l2.72-.28,3-.093Zm1.782,583.751-4.69-.187ZM309.926,144.478c-1.876,8.227,6,11.219,12.475,6.918,6.378-4.114,7.973-15.145.844-16.828a7.416,7.416,0,0,0-1.876-.187c-5.534.094-10.13,4.207-11.444,10.1ZM390.031,13.031c-3.189,1.4-4.315,2.337-3.658,2.618.188.093,1.219.28,5.065-1.309.094,0,6.66-2.9,6.754-3.553a.412.412,0,0,0-.281-.093,30.466,30.466,0,0,0-7.879,2.337Zm-18.76,562.435c4.409,2.524,9.661,4.114,9.192,2.8-.469-1.4-8.442-6.638-12.194-6.638-1.782.094-.563,1.309-.094,1.776a17.408,17.408,0,0,0,3.1,2.057ZM233.947,297.8c.375,6.357,3.94,10.564,8.817,10.658,10.224-.374,10.975-16.922,5.065-21.97a8.2,8.2,0,0,0-5.065-1.963C237.137,284.713,233.478,290.229,233.947,297.8Zm10.037,121.069c3.283,10.19,12.757,12.341,15.383,7.2,2.814-5.422-2.345-17.763-10.693-17.857C243.89,408.4,242.014,412.7,243.984,418.871Zm61.439-364.33c-3.846,3.646-3.658,5.609-1.5,5.609,4.69,0,16.415-9.816,14.258-11.967a1.455,1.455,0,0,0-1.032-.28C313.865,48,308.706,51.362,305.423,54.541ZM376.149,585a89.761,89.761,0,0,0,10.693,1.87c-.375-.28-18.385-4.3-19.229-4.3h-.094C367.895,583.039,372.209,584.161,376.149,585ZM166.036,282c0,9.069,4.315,12.715,7.973,9.255,5.159-4.861,5.253-22.157-1.5-22.438C168.756,268.913,166.036,274.429,166.036,282Zm44.743-155.754c-3.564,5.8-2.814,8.6,0,7.947,5.44-1.309,15.008-15.706,11.819-17.67a1.4,1.4,0,0,0-.844-.187c-2.814,0-7.5,4.3-10.975,9.91ZM351.386,16.677l-8.63,3.085.094.093c1.5-.093,19.51-5.7,20.073-6.077h-.094c-.844.093-6,1.309-11.444,2.9Zm-93.05,513.633c5.909,4.768,10.881,7.105,10.881,5.8,0-2.057-12.851-12.9-16.7-13.276-1.313.094-.188,2.057,2.908,4.862A17.394,17.394,0,0,0,258.335,530.311Zm-68.193-73.763c4.69,7.479,9.474,10.751,9.943,8.134.75-3.74-8.067-17.576-12.382-17.95C185.64,446.824,186.672,450.938,190.142,456.547ZM148.87,374.183c2.439,8.975,5.628,11.967,6.847,10.1,2.064-3.272-2.345-21.222-6.66-21.69-1.876.28-1.97,5.048-.188,11.593ZM147.276,215.9c-2.251,7.76-1.782,11.78,0,10.751,3.752-2.244,8.911-20.942,6-21.783h-.188C151.5,204.872,149.058,209.453,147.276,215.9ZM243.421,67.536c-3,2.337-7.316,5.8-7.5,6.264.75-.28,17.541-13.182,17.728-13.65C253.083,60.431,248.393,63.7,243.421,67.536Z" transform="translate(11.08 -219.78)" fill="#fff"/></g></g></g></svg>